<?xml version="1.0" encoding="utf-8" standalone="no"?>
<!DOCTYPE svg PUBLIC "-//W3C//DTD SVG 1.1//EN"
  "http://www.w3.org/Graphics/SVG/1.1/DTD/svg11.dtd">
<!-- Created with matplotlib (https://matplotlib.org/) -->
<svg height="288pt" version="1.1" viewBox="0 0 432 288" width="432pt" xmlns="http://www.w3.org/2000/svg" xmlns:xlink="http://www.w3.org/1999/xlink">
 <defs>
  <style type="text/css">
*{stroke-linecap:butt;stroke-linejoin:round;}
  </style>
 </defs>
 <g id="figure_1">
  <g id="patch_1">
   <path d="M 0 288 
L 432 288 
L 432 0 
L 0 0 
z
" style="fill:#ffffff;"/>
  </g>
  <g id="axes_1">
   <g id="patch_2">
    <path d="M 54 252 
L 388.8 252 
L 388.8 34.56 
L 54 34.56 
z
" style="fill:#ffffff;"/>
   </g>
   <g id="matplotlib.axis_1">
    <g id="xtick_1">
     <g id="line2d_1">
      <defs>
       <path d="M 0 0 
L 0 3.5 
" id="m55839e17a7" style="stroke:#000000;stroke-width:0.8;"/>
      </defs>
      <g>
       <use style="stroke:#000000;stroke-width:0.8;" x="69.218182" xlink:href="#m55839e17a7" y="252"/>
      </g>
     </g>
     <g id="text_1">
      <!-- −2.0 -->
      <defs>
       <path d="M 10.59375 35.5 
L 73.1875 35.5 
L 73.1875 27.203125 
L 10.59375 27.203125 
z
" id="DejaVuSans-8722"/>
       <path d="M 19.1875 8.296875 
L 53.609375 8.296875 
L 53.609375 0 
L 7.328125 0 
L 7.328125 8.296875 
Q 12.9375 14.109375 22.625 23.890625 
Q 32.328125 33.6875 34.8125 36.53125 
Q 39.546875 41.84375 41.421875 45.53125 
Q 43.3125 49.21875 43.3125 52.78125 
Q 43.3125 58.59375 39.234375 62.25 
Q 35.15625 65.921875 28.609375 65.921875 
Q 23.96875 65.921875 18.8125 64.3125 
Q 13.671875 62.703125 7.8125 59.421875 
L 7.8125 69.390625 
Q 13.765625 71.78125 18.9375 73 
Q 24.125 74.21875 28.421875 74.21875 
Q 39.75 74.21875 46.484375 68.546875 
Q 53.21875 62.890625 53.21875 53.421875 
Q 53.21875 48.921875 51.53125 44.890625 
Q 49.859375 40.875 45.40625 35.40625 
Q 44.1875 33.984375 37.640625 27.21875 
Q 31.109375 20.453125 19.1875 8.296875 
z
" id="DejaVuSans-50"/>
       <path d="M 10.6875 12.40625 
L 21 12.40625 
L 21 0 
L 10.6875 0 
z
" id="DejaVuSans-46"/>
       <path d="M 31.78125 66.40625 
Q 24.171875 66.40625 20.328125 58.90625 
Q 16.5 51.421875 16.5 36.375 
Q 16.5 21.390625 20.328125 13.890625 
Q 24.171875 6.390625 31.78125 6.390625 
Q 39.453125 6.390625 43.28125 13.890625 
Q 47.125 21.390625 47.125 36.375 
Q 47.125 51.421875 43.28125 58.90625 
Q 39.453125 66.40625 31.78125 66.40625 
z
M 31.78125 74.21875 
Q 44.046875 74.21875 50.515625 64.515625 
Q 56.984375 54.828125 56.984375 36.375 
Q 56.984375 17.96875 50.515625 8.265625 
Q 44.046875 -1.421875 31.78125 -1.421875 
Q 19.53125 -1.421875 13.0625 8.265625 
Q 6.59375 17.96875 6.59375 36.375 
Q 6.59375 54.828125 13.0625 64.515625 
Q 19.53125 74.21875 31.78125 74.21875 
z
" id="DejaVuSans-48"/>
      </defs>
      <g transform="translate(57.076776 266.598437)scale(0.1 -0.1)">
       <use xlink:href="#DejaVuSans-8722"/>
       <use x="83.789062" xlink:href="#DejaVuSans-50"/>
       <use x="147.412109" xlink:href="#DejaVuSans-46"/>
       <use x="179.199219" xlink:href="#DejaVuSans-48"/>
      </g>
     </g>
    </g>
    <g id="xtick_2">
     <g id="line2d_2">
      <g>
       <use style="stroke:#000000;stroke-width:0.8;" x="107.263636" xlink:href="#m55839e17a7" y="252"/>
      </g>
     </g>
     <g id="text_2">
      <!-- −1.5 -->
      <defs>
       <path d="M 12.40625 8.296875 
L 28.515625 8.296875 
L 28.515625 63.921875 
L 10.984375 60.40625 
L 10.984375 69.390625 
L 28.421875 72.90625 
L 38.28125 72.90625 
L 38.28125 8.296875 
L 54.390625 8.296875 
L 54.390625 0 
L 12.40625 0 
z
" id="DejaVuSans-49"/>
       <path d="M 10.796875 72.90625 
L 49.515625 72.90625 
L 49.515625 64.59375 
L 19.828125 64.59375 
L 19.828125 46.734375 
Q 21.96875 47.46875 24.109375 47.828125 
Q 26.265625 48.1875 28.421875 48.1875 
Q 40.625 48.1875 47.75 41.5 
Q 54.890625 34.8125 54.890625 23.390625 
Q 54.890625 11.625 47.5625 5.09375 
Q 40.234375 -1.421875 26.90625 -1.421875 
Q 22.3125 -1.421875 17.546875 -0.640625 
Q 12.796875 0.140625 7.71875 1.703125 
L 7.71875 11.625 
Q 12.109375 9.234375 16.796875 8.0625 
Q 21.484375 6.890625 26.703125 6.890625 
Q 35.15625 6.890625 40.078125 11.328125 
Q 45.015625 15.765625 45.015625 23.390625 
Q 45.015625 31 40.078125 35.4375 
Q 35.15625 39.890625 26.703125 39.890625 
Q 22.75 39.890625 18.8125 39.015625 
Q 14.890625 38.140625 10.796875 36.28125 
z
" id="DejaVuSans-53"/>
      </defs>
      <g transform="translate(95.12223 266.598437)scale(0.1 -0.1)">
       <use xlink:href="#DejaVuSans-8722"/>
       <use x="83.789062" xlink:href="#DejaVuSans-49"/>
       <use x="147.412109" xlink:href="#DejaVuSans-46"/>
       <use x="179.199219" xlink:href="#DejaVuSans-53"/>
      </g>
     </g>
    </g>
    <g id="xtick_3">
     <g id="line2d_3">
      <g>
       <use style="stroke:#000000;stroke-width:0.8;" x="145.309091" xlink:href="#m55839e17a7" y="252"/>
      </g>
     </g>
     <g id="text_3">
      <!-- −1.0 -->
      <g transform="translate(133.167685 266.598437)scale(0.1 -0.1)">
       <use xlink:href="#DejaVuSans-8722"/>
       <use x="83.789062" xlink:href="#DejaVuSans-49"/>
       <use x="147.412109" xlink:href="#DejaVuSans-46"/>
       <use x="179.199219" xlink:href="#DejaVuSans-48"/>
      </g>
     </g>
    </g>
    <g id="xtick_4">
     <g id="line2d_4">
      <g>
       <use style="stroke:#000000;stroke-width:0.8;" x="183.354545" xlink:href="#m55839e17a7" y="252"/>
      </g>
     </g>
     <g id="text_4">
      <!-- −0.5 -->
      <g transform="translate(171.213139 266.598437)scale(0.1 -0.1)">
       <use xlink:href="#DejaVuSans-8722"/>
       <use x="83.789062" xlink:href="#DejaVuSans-48"/>
       <use x="147.412109" xlink:href="#DejaVuSans-46"/>
       <use x="179.199219" xlink:href="#DejaVuSans-53"/>
      </g>
     </g>
    </g>
    <g id="xtick_5">
     <g id="line2d_5">
      <g>
       <use style="stroke:#000000;stroke-width:0.8;" x="221.4" xlink:href="#m55839e17a7" y="252"/>
      </g>
     </g>
     <g id="text_5">
      <!-- 0.0 -->
      <g transform="translate(213.448438 266.598437)scale(0.1 -0.1)">
       <use xlink:href="#DejaVuSans-48"/>
       <use x="63.623047" xlink:href="#DejaVuSans-46"/>
       <use x="95.410156" xlink:href="#DejaVuSans-48"/>
      </g>
     </g>
    </g>
    <g id="xtick_6">
     <g id="line2d_6">
      <g>
       <use style="stroke:#000000;stroke-width:0.8;" x="259.445455" xlink:href="#m55839e17a7" y="252"/>
      </g>
     </g>
     <g id="text_6">
      <!-- 0.5 -->
      <g transform="translate(251.493892 266.598437)scale(0.1 -0.1)">
       <use xlink:href="#DejaVuSans-48"/>
       <use x="63.623047" xlink:href="#DejaVuSans-46"/>
       <use x="95.410156" xlink:href="#DejaVuSans-53"/>
      </g>
     </g>
    </g>
    <g id="xtick_7">
     <g id="line2d_7">
      <g>
       <use style="stroke:#000000;stroke-width:0.8;" x="297.490909" xlink:href="#m55839e17a7" y="252"/>
      </g>
     </g>
     <g id="text_7">
      <!-- 1.0 -->
      <g transform="translate(289.539347 266.598437)scale(0.1 -0.1)">
       <use xlink:href="#DejaVuSans-49"/>
       <use x="63.623047" xlink:href="#DejaVuSans-46"/>
       <use x="95.410156" xlink:href="#DejaVuSans-48"/>
      </g>
     </g>
    </g>
    <g id="xtick_8">
     <g id="line2d_8">
      <g>
       <use style="stroke:#000000;stroke-width:0.8;" x="335.536364" xlink:href="#m55839e17a7" y="252"/>
      </g>
     </g>
     <g id="text_8">
      <!-- 1.5 -->
      <g transform="translate(327.584801 266.598437)scale(0.1 -0.1)">
       <use xlink:href="#DejaVuSans-49"/>
       <use x="63.623047" xlink:href="#DejaVuSans-46"/>
       <use x="95.410156" xlink:href="#DejaVuSans-53"/>
      </g>
     </g>
    </g>
    <g id="xtick_9">
     <g id="line2d_9">
      <g>
       <use style="stroke:#000000;stroke-width:0.8;" x="373.581818" xlink:href="#m55839e17a7" y="252"/>
      </g>
     </g>
     <g id="text_9">
      <!-- 2.0 -->
      <g transform="translate(365.630256 266.598437)scale(0.1 -0.1)">
       <use xlink:href="#DejaVuSans-50"/>
       <use x="63.623047" xlink:href="#DejaVuSans-46"/>
       <use x="95.410156" xlink:href="#DejaVuSans-48"/>
      </g>
     </g>
    </g>
    <g id="text_10">
     <!-- Time(s) -->
     <defs>
      <path d="M -0.296875 72.90625 
L 61.375 72.90625 
L 61.375 64.59375 
L 35.5 64.59375 
L 35.5 0 
L 25.59375 0 
L 25.59375 64.59375 
L -0.296875 64.59375 
z
" id="DejaVuSans-84"/>
      <path d="M 9.421875 54.6875 
L 18.40625 54.6875 
L 18.40625 0 
L 9.421875 0 
z
M 9.421875 75.984375 
L 18.40625 75.984375 
L 18.40625 64.59375 
L 9.421875 64.59375 
z
" id="DejaVuSans-105"/>
      <path d="M 52 44.1875 
Q 55.375 50.25 60.0625 53.125 
Q 64.75 56 71.09375 56 
Q 79.640625 56 84.28125 50.015625 
Q 88.921875 44.046875 88.921875 33.015625 
L 88.921875 0 
L 79.890625 0 
L 79.890625 32.71875 
Q 79.890625 40.578125 77.09375 44.375 
Q 74.3125 48.1875 68.609375 48.1875 
Q 61.625 48.1875 57.5625 43.546875 
Q 53.515625 38.921875 53.515625 30.90625 
L 53.515625 0 
L 44.484375 0 
L 44.484375 32.71875 
Q 44.484375 40.625 41.703125 44.40625 
Q 38.921875 48.1875 33.109375 48.1875 
Q 26.21875 48.1875 22.15625 43.53125 
Q 18.109375 38.875 18.109375 30.90625 
L 18.109375 0 
L 9.078125 0 
L 9.078125 54.6875 
L 18.109375 54.6875 
L 18.109375 46.1875 
Q 21.1875 51.21875 25.484375 53.609375 
Q 29.78125 56 35.6875 56 
Q 41.65625 56 45.828125 52.96875 
Q 50 49.953125 52 44.1875 
z
" id="DejaVuSans-109"/>
      <path d="M 56.203125 29.59375 
L 56.203125 25.203125 
L 14.890625 25.203125 
Q 15.484375 15.921875 20.484375 11.0625 
Q 25.484375 6.203125 34.421875 6.203125 
Q 39.59375 6.203125 44.453125 7.46875 
Q 49.3125 8.734375 54.109375 11.28125 
L 54.109375 2.78125 
Q 49.265625 0.734375 44.1875 -0.34375 
Q 39.109375 -1.421875 33.890625 -1.421875 
Q 20.796875 -1.421875 13.15625 6.1875 
Q 5.515625 13.8125 5.515625 26.8125 
Q 5.515625 40.234375 12.765625 48.109375 
Q 20.015625 56 32.328125 56 
Q 43.359375 56 49.78125 48.890625 
Q 56.203125 41.796875 56.203125 29.59375 
z
M 47.21875 32.234375 
Q 47.125 39.59375 43.09375 43.984375 
Q 39.0625 48.390625 32.421875 48.390625 
Q 24.90625 48.390625 20.390625 44.140625 
Q 15.875 39.890625 15.1875 32.171875 
z
" id="DejaVuSans-101"/>
      <path d="M 31 75.875 
Q 24.46875 64.65625 21.28125 53.65625 
Q 18.109375 42.671875 18.109375 31.390625 
Q 18.109375 20.125 21.3125 9.0625 
Q 24.515625 -2 31 -13.1875 
L 23.1875 -13.1875 
Q 15.875 -1.703125 12.234375 9.375 
Q 8.59375 20.453125 8.59375 31.390625 
Q 8.59375 42.28125 12.203125 53.3125 
Q 15.828125 64.359375 23.1875 75.875 
z
" id="DejaVuSans-40"/>
      <path d="M 44.28125 53.078125 
L 44.28125 44.578125 
Q 40.484375 46.53125 36.375 47.5 
Q 32.28125 48.484375 27.875 48.484375 
Q 21.1875 48.484375 17.84375 46.4375 
Q 14.5 44.390625 14.5 40.28125 
Q 14.5 37.15625 16.890625 35.375 
Q 19.28125 33.59375 26.515625 31.984375 
L 29.59375 31.296875 
Q 39.15625 29.25 43.1875 25.515625 
Q 47.21875 21.78125 47.21875 15.09375 
Q 47.21875 7.46875 41.1875 3.015625 
Q 35.15625 -1.421875 24.609375 -1.421875 
Q 20.21875 -1.421875 15.453125 -0.5625 
Q 10.6875 0.296875 5.421875 2 
L 5.421875 11.28125 
Q 10.40625 8.6875 15.234375 7.390625 
Q 20.0625 6.109375 24.8125 6.109375 
Q 31.15625 6.109375 34.5625 8.28125 
Q 37.984375 10.453125 37.984375 14.40625 
Q 37.984375 18.0625 35.515625 20.015625 
Q 33.0625 21.96875 24.703125 23.78125 
L 21.578125 24.515625 
Q 13.234375 26.265625 9.515625 29.90625 
Q 5.8125 33.546875 5.8125 39.890625 
Q 5.8125 47.609375 11.28125 51.796875 
Q 16.75 56 26.8125 56 
Q 31.78125 56 36.171875 55.265625 
Q 40.578125 54.546875 44.28125 53.078125 
z
" id="DejaVuSans-115"/>
      <path d="M 8.015625 75.875 
L 15.828125 75.875 
Q 23.140625 64.359375 26.78125 53.3125 
Q 30.421875 42.28125 30.421875 31.390625 
Q 30.421875 20.453125 26.78125 9.375 
Q 23.140625 -1.703125 15.828125 -13.1875 
L 8.015625 -13.1875 
Q 14.5 -2 17.703125 9.0625 
Q 20.90625 20.125 20.90625 31.390625 
Q 20.90625 42.671875 17.703125 53.65625 
Q 14.5 64.65625 8.015625 75.875 
z
" id="DejaVuSans-41"/>
     </defs>
     <g transform="translate(202.50625 280.276563)scale(0.1 -0.1)">
      <use xlink:href="#DejaVuSans-84"/>
      <use x="61.037109" xlink:href="#DejaVuSans-105"/>
      <use x="88.820312" xlink:href="#DejaVuSans-109"/>
      <use x="186.232422" xlink:href="#DejaVuSans-101"/>
      <use x="247.755859" xlink:href="#DejaVuSans-40"/>
      <use x="286.769531" xlink:href="#DejaVuSans-115"/>
      <use x="338.869141" xlink:href="#DejaVuSans-41"/>
     </g>
    </g>
   </g>
   <g id="matplotlib.axis_2">
    <g id="ytick_1">
     <g id="line2d_10">
      <defs>
       <path d="M 0 0 
L -3.5 0 
" id="m7fcbc65c40" style="stroke:#000000;stroke-width:0.8;"/>
      </defs>
      <g>
       <use style="stroke:#000000;stroke-width:0.8;" x="54" xlink:href="#m7fcbc65c40" y="242.116364"/>
      </g>
     </g>
     <g id="text_11">
      <!-- 0 -->
      <g transform="translate(40.6375 245.915582)scale(0.1 -0.1)">
       <use xlink:href="#DejaVuSans-48"/>
      </g>
     </g>
    </g>
    <g id="ytick_2">
     <g id="line2d_11">
      <g>
       <use style="stroke:#000000;stroke-width:0.8;" x="54" xlink:href="#m7fcbc65c40" y="198.936651"/>
      </g>
     </g>
     <g id="text_12">
      <!-- 5 -->
      <g transform="translate(40.6375 202.735869)scale(0.1 -0.1)">
       <use xlink:href="#DejaVuSans-53"/>
      </g>
     </g>
    </g>
    <g id="ytick_3">
     <g id="line2d_12">
      <g>
       <use style="stroke:#000000;stroke-width:0.8;" x="54" xlink:href="#m7fcbc65c40" y="155.756938"/>
      </g>
     </g>
     <g id="text_13">
      <!-- 10 -->
      <g transform="translate(34.275 159.556156)scale(0.1 -0.1)">
       <use xlink:href="#DejaVuSans-49"/>
       <use x="63.623047" xlink:href="#DejaVuSans-48"/>
      </g>
     </g>
    </g>
    <g id="ytick_4">
     <g id="line2d_13">
      <g>
       <use style="stroke:#000000;stroke-width:0.8;" x="54" xlink:href="#m7fcbc65c40" y="112.577225"/>
      </g>
     </g>
     <g id="text_14">
      <!-- 15 -->
      <g transform="translate(34.275 116.376443)scale(0.1 -0.1)">
       <use xlink:href="#DejaVuSans-49"/>
       <use x="63.623047" xlink:href="#DejaVuSans-53"/>
      </g>
     </g>
    </g>
    <g id="ytick_5">
     <g id="line2d_14">
      <g>
       <use style="stroke:#000000;stroke-width:0.8;" x="54" xlink:href="#m7fcbc65c40" y="69.397512"/>
      </g>
     </g>
     <g id="text_15">
      <!-- 20 -->
      <g transform="translate(34.275 73.19673)scale(0.1 -0.1)">
       <use xlink:href="#DejaVuSans-50"/>
       <use x="63.623047" xlink:href="#DejaVuSans-48"/>
      </g>
     </g>
    </g>
    <g id="text_16">
     <!-- Information(bit/s) -->
     <defs>
      <path d="M 9.8125 72.90625 
L 19.671875 72.90625 
L 19.671875 0 
L 9.8125 0 
z
" id="DejaVuSans-73"/>
      <path d="M 54.890625 33.015625 
L 54.890625 0 
L 45.90625 0 
L 45.90625 32.71875 
Q 45.90625 40.484375 42.875 44.328125 
Q 39.84375 48.1875 33.796875 48.1875 
Q 26.515625 48.1875 22.3125 43.546875 
Q 18.109375 38.921875 18.109375 30.90625 
L 18.109375 0 
L 9.078125 0 
L 9.078125 54.6875 
L 18.109375 54.6875 
L 18.109375 46.1875 
Q 21.34375 51.125 25.703125 53.5625 
Q 30.078125 56 35.796875 56 
Q 45.21875 56 50.046875 50.171875 
Q 54.890625 44.34375 54.890625 33.015625 
z
" id="DejaVuSans-110"/>
      <path d="M 37.109375 75.984375 
L 37.109375 68.5 
L 28.515625 68.5 
Q 23.6875 68.5 21.796875 66.546875 
Q 19.921875 64.59375 19.921875 59.515625 
L 19.921875 54.6875 
L 34.71875 54.6875 
L 34.71875 47.703125 
L 19.921875 47.703125 
L 19.921875 0 
L 10.890625 0 
L 10.890625 47.703125 
L 2.296875 47.703125 
L 2.296875 54.6875 
L 10.890625 54.6875 
L 10.890625 58.5 
Q 10.890625 67.625 15.140625 71.796875 
Q 19.390625 75.984375 28.609375 75.984375 
z
" id="DejaVuSans-102"/>
      <path d="M 30.609375 48.390625 
Q 23.390625 48.390625 19.1875 42.75 
Q 14.984375 37.109375 14.984375 27.296875 
Q 14.984375 17.484375 19.15625 11.84375 
Q 23.34375 6.203125 30.609375 6.203125 
Q 37.796875 6.203125 41.984375 11.859375 
Q 46.1875 17.53125 46.1875 27.296875 
Q 46.1875 37.015625 41.984375 42.703125 
Q 37.796875 48.390625 30.609375 48.390625 
z
M 30.609375 56 
Q 42.328125 56 49.015625 48.375 
Q 55.71875 40.765625 55.71875 27.296875 
Q 55.71875 13.875 49.015625 6.21875 
Q 42.328125 -1.421875 30.609375 -1.421875 
Q 18.84375 -1.421875 12.171875 6.21875 
Q 5.515625 13.875 5.515625 27.296875 
Q 5.515625 40.765625 12.171875 48.375 
Q 18.84375 56 30.609375 56 
z
" id="DejaVuSans-111"/>
      <path d="M 41.109375 46.296875 
Q 39.59375 47.171875 37.8125 47.578125 
Q 36.03125 48 33.890625 48 
Q 26.265625 48 22.1875 43.046875 
Q 18.109375 38.09375 18.109375 28.8125 
L 18.109375 0 
L 9.078125 0 
L 9.078125 54.6875 
L 18.109375 54.6875 
L 18.109375 46.1875 
Q 20.953125 51.171875 25.484375 53.578125 
Q 30.03125 56 36.53125 56 
Q 37.453125 56 38.578125 55.875 
Q 39.703125 55.765625 41.0625 55.515625 
z
" id="DejaVuSans-114"/>
      <path d="M 34.28125 27.484375 
Q 23.390625 27.484375 19.1875 25 
Q 14.984375 22.515625 14.984375 16.5 
Q 14.984375 11.71875 18.140625 8.90625 
Q 21.296875 6.109375 26.703125 6.109375 
Q 34.1875 6.109375 38.703125 11.40625 
Q 43.21875 16.703125 43.21875 25.484375 
L 43.21875 27.484375 
z
M 52.203125 31.203125 
L 52.203125 0 
L 43.21875 0 
L 43.21875 8.296875 
Q 40.140625 3.328125 35.546875 0.953125 
Q 30.953125 -1.421875 24.3125 -1.421875 
Q 15.921875 -1.421875 10.953125 3.296875 
Q 6 8.015625 6 15.921875 
Q 6 25.140625 12.171875 29.828125 
Q 18.359375 34.515625 30.609375 34.515625 
L 43.21875 34.515625 
L 43.21875 35.40625 
Q 43.21875 41.609375 39.140625 45 
Q 35.0625 48.390625 27.6875 48.390625 
Q 23 48.390625 18.546875 47.265625 
Q 14.109375 46.140625 10.015625 43.890625 
L 10.015625 52.203125 
Q 14.9375 54.109375 19.578125 55.046875 
Q 24.21875 56 28.609375 56 
Q 40.484375 56 46.34375 49.84375 
Q 52.203125 43.703125 52.203125 31.203125 
z
" id="DejaVuSans-97"/>
      <path d="M 18.3125 70.21875 
L 18.3125 54.6875 
L 36.8125 54.6875 
L 36.8125 47.703125 
L 18.3125 47.703125 
L 18.3125 18.015625 
Q 18.3125 11.328125 20.140625 9.421875 
Q 21.96875 7.515625 27.59375 7.515625 
L 36.8125 7.515625 
L 36.8125 0 
L 27.59375 0 
Q 17.1875 0 13.234375 3.875 
Q 9.28125 7.765625 9.28125 18.015625 
L 9.28125 47.703125 
L 2.6875 47.703125 
L 2.6875 54.6875 
L 9.28125 54.6875 
L 9.28125 70.21875 
z
" id="DejaVuSans-116"/>
      <path d="M 48.6875 27.296875 
Q 48.6875 37.203125 44.609375 42.84375 
Q 40.53125 48.484375 33.40625 48.484375 
Q 26.265625 48.484375 22.1875 42.84375 
Q 18.109375 37.203125 18.109375 27.296875 
Q 18.109375 17.390625 22.1875 11.75 
Q 26.265625 6.109375 33.40625 6.109375 
Q 40.53125 6.109375 44.609375 11.75 
Q 48.6875 17.390625 48.6875 27.296875 
z
M 18.109375 46.390625 
Q 20.953125 51.265625 25.265625 53.625 
Q 29.59375 56 35.59375 56 
Q 45.5625 56 51.78125 48.09375 
Q 58.015625 40.1875 58.015625 27.296875 
Q 58.015625 14.40625 51.78125 6.484375 
Q 45.5625 -1.421875 35.59375 -1.421875 
Q 29.59375 -1.421875 25.265625 0.953125 
Q 20.953125 3.328125 18.109375 8.203125 
L 18.109375 0 
L 9.078125 0 
L 9.078125 75.984375 
L 18.109375 75.984375 
z
" id="DejaVuSans-98"/>
      <path d="M 25.390625 72.90625 
L 33.6875 72.90625 
L 8.296875 -9.28125 
L 0 -9.28125 
z
" id="DejaVuSans-47"/>
     </defs>
     <g transform="translate(28.195312 187.02375)rotate(-90)scale(0.1 -0.1)">
      <use xlink:href="#DejaVuSans-73"/>
      <use x="29.492188" xlink:href="#DejaVuSans-110"/>
      <use x="92.871094" xlink:href="#DejaVuSans-102"/>
      <use x="128.076172" xlink:href="#DejaVuSans-111"/>
      <use x="189.257812" xlink:href="#DejaVuSans-114"/>
      <use x="230.355469" xlink:href="#DejaVuSans-109"/>
      <use x="327.767578" xlink:href="#DejaVuSans-97"/>
      <use x="389.046875" xlink:href="#DejaVuSans-116"/>
      <use x="428.255859" xlink:href="#DejaVuSans-105"/>
      <use x="456.039062" xlink:href="#DejaVuSans-111"/>
      <use x="517.220703" xlink:href="#DejaVuSans-110"/>
      <use x="580.599609" xlink:href="#DejaVuSans-40"/>
      <use x="619.613281" xlink:href="#DejaVuSans-98"/>
      <use x="683.089844" xlink:href="#DejaVuSans-105"/>
      <use x="710.873047" xlink:href="#DejaVuSans-116"/>
      <use x="750.082031" xlink:href="#DejaVuSans-47"/>
      <use x="783.773438" xlink:href="#DejaVuSans-115"/>
      <use x="835.873047" xlink:href="#DejaVuSans-41"/>
     </g>
    </g>
   </g>
   <g id="line2d_15">
    <path clip-path="url(#p3e17831be2)" d="M 69.218182 239.636629 
L 70.486364 239.652796 
L 71.754545 239.357184 
L 73.022727 239.202249 
L 75.559091 239.417888 
L 79.363636 239.190556 
L 81.9 238.776568 
L 85.704545 238.146296 
L 89.509091 237.782246 
L 93.313636 237.630227 
L 94.581818 237.420444 
L 97.118182 237.322557 
L 100.922727 236.562371 
L 103.459091 236.019795 
L 105.995455 235.644714 
L 109.8 234.445329 
L 111.068182 234.263479 
L 113.604545 234.241451 
L 116.140909 234.613835 
L 118.677273 235.062656 
L 126.286364 234.975549 
L 128.822727 235.044121 
L 140.236364 235.387752 
L 142.772727 235.835237 
L 144.040909 236.108108 
L 145.309091 236.52301 
L 155.454545 238.687102 
L 159.259091 239.327946 
L 161.795455 239.477619 
L 166.868182 239.26781 
L 169.404545 239.012248 
L 171.940909 238.837605 
L 174.477273 238.677158 
L 177.013636 238.574812 
L 178.281818 238.646872 
L 180.818182 239.137491 
L 183.354545 239.955845 
L 184.622727 240.693813 
L 185.890909 241.605618 
L 187.159091 241.932496 
L 188.427273 241.83824 
L 193.5 242.11249 
L 218.863636 242.116364 
L 220.131818 241.232179 
L 221.4 230.690189 
L 222.668182 217.934323 
L 223.936364 203.811359 
L 229.009091 142.073374 
L 231.545455 112.101889 
L 232.813636 98.534692 
L 235.35 74.504123 
L 236.618182 64.757334 
L 237.886364 56.990763 
L 239.154545 50.769169 
L 240.422727 47.031278 
L 241.690909 45.012437 
L 242.959091 44.443636 
L 244.227273 45.64086 
L 245.495455 48.38309 
L 246.763636 52.9921 
L 248.031818 58.810766 
L 250.568182 73.832603 
L 251.836364 81.981843 
L 259.445455 137.312687 
L 261.981818 153.635489 
L 263.25 161.168515 
L 265.786364 173.761933 
L 268.322727 185.405387 
L 269.590909 190.333317 
L 270.859091 194.524732 
L 273.395455 201.626162 
L 275.931818 207.085803 
L 278.468182 211.405042 
L 281.004545 214.86757 
L 284.809091 219.486573 
L 287.345455 221.315911 
L 289.881818 222.384798 
L 292.418182 223.26849 
L 293.686364 223.862967 
L 294.954545 224.307996 
L 296.222727 224.932797 
L 301.295455 227.944341 
L 302.563636 228.437584 
L 303.831818 228.714564 
L 305.1 228.792888 
L 307.636364 227.780032 
L 308.904545 227.490737 
L 311.440909 227.246478 
L 312.709091 227.018736 
L 315.245455 226.004184 
L 319.05 225.253586 
L 320.318182 224.990378 
L 324.122727 224.850766 
L 325.390909 224.979058 
L 327.927273 225.358653 
L 329.195455 225.341209 
L 331.731818 225.715184 
L 334.268182 226.236359 
L 336.804545 226.913243 
L 340.609091 227.487279 
L 341.877273 227.819697 
L 345.681818 228.01695 
L 349.486364 227.6073 
L 353.290909 227.195522 
L 354.559091 226.922792 
L 359.631818 226.202357 
L 364.704545 226.436047 
L 369.777273 228.074514 
L 371.045455 228.762375 
L 372.313636 229.205677 
L 373.581818 229.824735 
L 373.581818 229.824735 
" style="fill:none;stroke:#ff0000;stroke-linecap:square;stroke-width:1.5;"/>
   </g>
   <g id="line2d_16">
    <path clip-path="url(#p3e17831be2)" d="M 69.218182 242.116364 
L 97.118182 242.065794 
L 98.386364 241.953463 
L 100.922727 241.543109 
L 103.459091 241.378333 
L 112.336364 241.732651 
L 121.213636 242.116364 
L 128.822727 242.024171 
L 130.090909 241.903357 
L 135.163636 241.987529 
L 136.431818 242.109506 
L 145.309091 242.040925 
L 147.845455 241.793478 
L 149.113636 241.657728 
L 151.65 241.831546 
L 152.918182 241.941505 
L 154.186364 241.852992 
L 156.722727 241.907903 
L 161.795455 241.981673 
L 163.063636 242.098314 
L 165.6 242.062587 
L 166.868182 241.960816 
L 171.940909 242.052821 
L 173.209091 242.01203 
L 175.745455 241.708872 
L 178.281818 241.740158 
L 180.818182 241.569285 
L 182.086364 241.445666 
L 184.622727 240.700249 
L 185.890909 240.258693 
L 187.159091 238.541765 
L 188.427273 236.296239 
L 189.695455 233.762978 
L 190.963636 230.747873 
L 192.231818 227.160488 
L 194.768182 218.819322 
L 197.304545 210.040702 
L 202.377273 191.144867 
L 204.913636 183.701231 
L 206.181818 180.549049 
L 207.45 178.790955 
L 208.718182 177.626097 
L 209.986364 178.294749 
L 211.254545 179.829764 
L 212.522727 182.720342 
L 213.790909 187.060282 
L 215.059091 193.853857 
L 216.327273 202.173076 
L 217.595455 212.153098 
L 220.131818 233.645693 
L 223.936364 242.1158 
L 373.581818 242.116364 
L 373.581818 242.116364 
" style="fill:none;stroke:#0000ff;stroke-linecap:square;stroke-width:1.5;"/>
   </g>
   <g id="line2d_17">
    <path clip-path="url(#p3e17831be2)" d="M 69.218182 235.096932 
L 70.486364 234.683486 
L 73.022727 234.11053 
L 74.290909 233.58979 
L 75.559091 233.7902 
L 76.827273 233.846807 
L 78.095455 233.406784 
L 79.363636 233.151802 
L 80.631818 233.051333 
L 83.168182 233.340055 
L 85.704545 233.573567 
L 88.240909 233.321415 
L 90.777273 232.913228 
L 92.045455 232.872252 
L 93.313636 232.536019 
L 94.581818 232.559595 
L 97.118182 232.426996 
L 98.386364 232.366105 
L 100.922727 232.734643 
L 103.459091 232.684467 
L 104.727273 232.745888 
L 105.995455 232.923195 
L 108.531818 233.661584 
L 111.068182 233.811123 
L 112.336364 233.787198 
L 113.604545 233.35062 
L 116.140909 233.370907 
L 117.409091 232.697867 
L 121.213636 231.777948 
L 123.75 231.486603 
L 125.018182 231.372091 
L 127.554545 231.578794 
L 128.822727 231.928475 
L 130.090909 231.888378 
L 131.359091 232.024859 
L 132.627273 232.480797 
L 133.895455 232.718234 
L 135.163636 233.144136 
L 140.236364 234.184675 
L 142.772727 233.630949 
L 144.040909 233.519627 
L 145.309091 233.056092 
L 146.577273 232.804052 
L 147.845455 232.904413 
L 149.113636 232.660288 
L 152.918182 231.423435 
L 154.186364 231.171475 
L 155.454545 231.271703 
L 156.722727 231.18283 
L 157.990909 231.370887 
L 159.259091 231.771545 
L 160.527273 231.65147 
L 161.795455 231.736893 
L 164.331818 231.558548 
L 165.6 231.893672 
L 166.868182 231.998466 
L 168.136364 232.536436 
L 169.404545 232.820081 
L 170.672727 232.913115 
L 173.209091 232.635982 
L 175.745455 232.483692 
L 178.281818 232.043655 
L 182.086364 230.289044 
L 183.354545 229.42441 
L 184.622727 227.907348 
L 185.890909 226.095718 
L 187.159091 225.129216 
L 188.427273 224.82601 
L 189.695455 224.313554 
L 190.963636 223.664475 
L 192.231818 223.178618 
L 193.5 222.410326 
L 197.304545 218.393366 
L 198.572727 216.657181 
L 199.840909 214.117242 
L 201.109091 211.119868 
L 202.377273 207.740699 
L 203.645455 203.713964 
L 204.913636 199.069196 
L 206.181818 193.458897 
L 207.45 186.968149 
L 208.718182 179.008745 
L 211.254545 160.941604 
L 212.522727 150.887873 
L 220.131818 83.95102 
L 221.4 82.801902 
L 222.668182 89.719882 
L 223.936364 100.735813 
L 226.472727 126.616348 
L 232.813636 191.460971 
L 234.081818 203.015885 
L 235.35 213.201601 
L 236.618182 221.635668 
L 237.886364 228.753112 
L 239.154545 234.238479 
L 240.422727 237.956354 
L 241.690909 240.025142 
L 242.959091 240.309612 
L 244.227273 238.958598 
L 245.495455 236.013449 
L 246.763636 231.526571 
L 248.031818 226.452054 
L 249.3 220.417715 
L 253.104545 200.90275 
L 254.372727 194.897896 
L 256.909091 185.228724 
L 258.177273 181.652822 
L 259.445455 178.48696 
L 260.713636 176.073923 
L 261.981818 174.403954 
L 263.25 173.904941 
L 265.786364 175.14793 
L 268.322727 176.872734 
L 269.590909 178.244031 
L 272.127273 181.743937 
L 273.395455 183.900339 
L 275.931818 188.822047 
L 279.736364 196.724912 
L 281.004545 198.664123 
L 283.540909 203.397367 
L 286.077273 207.552594 
L 287.345455 209.616129 
L 289.881818 213.054347 
L 294.954545 219.924154 
L 297.490909 221.836202 
L 298.759091 222.778202 
L 300.027273 223.410834 
L 301.295455 223.831474 
L 303.831818 224.392095 
L 305.1 224.445663 
L 307.636364 226.092409 
L 311.440909 227.214839 
L 312.709091 227.944754 
L 313.977273 228.896057 
L 315.245455 229.596579 
L 316.513636 229.987994 
L 319.05 231.099095 
L 320.318182 231.981546 
L 324.122727 234.02405 
L 325.390909 234.532019 
L 330.463636 235.896436 
L 335.536364 235.657664 
L 336.804545 235.470546 
L 338.072727 235.095899 
L 339.340909 234.589527 
L 340.609091 234.324818 
L 341.877273 233.822761 
L 343.145455 233.447577 
L 344.413636 232.86878 
L 345.681818 232.58449 
L 348.218182 232.485008 
L 349.486364 232.472256 
L 350.754545 232.707041 
L 352.022727 232.587773 
L 355.827273 232.696003 
L 357.095455 233.149317 
L 358.363636 233.301835 
L 359.631818 233.567494 
L 362.168182 233.670384 
L 363.436364 233.624016 
L 364.704545 233.821896 
L 365.972727 233.708965 
L 369.777273 233.946668 
L 372.313636 233.700961 
L 373.581818 233.594573 
L 373.581818 233.594573 
" style="fill:none;stroke:#000000;stroke-linecap:square;stroke-width:1.5;"/>
   </g>
   <g id="line2d_18">
    <path clip-path="url(#p3e17831be2)" d="M 69.218182 240.463792 
L 70.486364 240.432417 
L 73.022727 240.675687 
L 76.827273 240.543878 
L 81.9 240.483798 
L 84.436364 240.558945 
L 86.972727 240.447792 
L 90.777273 239.897515 
L 97.118182 238.904074 
L 99.654545 239.009892 
L 103.459091 239.265909 
L 107.263636 239.869784 
L 109.8 240.269631 
L 112.336364 240.368206 
L 118.677273 240.115234 
L 122.481818 240.499076 
L 130.090909 240.369311 
L 131.359091 240.267328 
L 135.163636 240.342407 
L 137.7 240.414006 
L 141.504545 240.967311 
L 147.845455 240.97299 
L 150.381818 240.787503 
L 152.918182 240.443102 
L 154.186364 240.474125 
L 163.063636 239.773939 
L 165.6 239.768236 
L 169.404545 239.824686 
L 175.745455 239.627739 
L 178.281818 239.229146 
L 179.55 238.743812 
L 180.818182 238.064937 
L 183.354545 236.325517 
L 184.622727 235.061551 
L 185.890909 233.563077 
L 187.159091 232.808199 
L 188.427273 232.434784 
L 192.231818 230.741056 
L 193.5 230.053281 
L 196.036364 228.208292 
L 197.304545 227.102651 
L 198.572727 225.762857 
L 201.109091 222.376764 
L 202.377273 220.414096 
L 203.645455 218.059684 
L 204.913636 215.283515 
L 206.181818 212.216578 
L 207.45 208.636492 
L 209.986364 200.397754 
L 212.522727 190.830847 
L 215.059091 179.839716 
L 217.595455 167.064924 
L 220.131818 154.253937 
L 221.4 157.086532 
L 222.668182 161.928079 
L 223.936364 167.868077 
L 227.740909 191.220382 
L 230.277273 205.73744 
L 232.813636 218.718946 
L 234.081818 224.413233 
L 235.35 229.317984 
L 236.618182 233.268388 
L 237.886364 236.515641 
L 239.154545 238.852819 
L 240.422727 240.393589 
L 241.690909 241.176928 
L 242.959091 241.283272 
L 244.227273 240.659915 
L 245.495455 239.395696 
L 246.763636 237.594206 
L 248.031818 235.131282 
L 249.3 232.412869 
L 251.836364 226.114078 
L 254.372727 219.595296 
L 258.177273 210.647671 
L 259.445455 208.010015 
L 260.713636 205.733062 
L 261.981818 203.732318 
L 263.25 202.220381 
L 265.786364 201.028375 
L 267.054545 200.653641 
L 268.322727 200.468544 
L 269.590909 200.784415 
L 270.859091 201.376792 
L 272.127273 202.094413 
L 273.395455 203.117046 
L 277.2 207.008006 
L 278.468182 208.470113 
L 281.004545 211.780571 
L 283.540909 214.842826 
L 288.613636 220.461808 
L 291.15 222.824097 
L 293.686364 225.212026 
L 294.954545 226.290476 
L 296.222727 227.056576 
L 300.027273 228.475395 
L 302.563636 229.259943 
L 305.1 230.621054 
L 307.636364 232.781051 
L 308.904545 233.574483 
L 312.709091 235.363106 
L 315.245455 237.097981 
L 317.781818 238.199511 
L 320.318182 239.153359 
L 322.854545 239.617738 
L 325.390909 239.773984 
L 327.927273 239.787696 
L 329.195455 239.952184 
L 333 239.759011 
L 338.072727 239.520442 
L 339.340909 239.579522 
L 341.877273 239.382402 
L 345.681818 239.790869 
L 348.218182 240.324186 
L 349.486364 240.528236 
L 352.022727 240.545573 
L 354.559091 240.618254 
L 357.095455 240.632339 
L 362.168182 240.547456 
L 364.704545 240.399217 
L 373.581818 238.94973 
L 373.581818 238.94973 
" style="fill:none;stroke:#008000;stroke-linecap:square;stroke-width:1.5;"/>
   </g>
   <g id="patch_3">
    <path d="M 54 252 
L 54 34.56 
" style="fill:none;stroke:#000000;stroke-linecap:square;stroke-linejoin:miter;stroke-width:0.8;"/>
   </g>
   <g id="patch_4">
    <path d="M 388.8 252 
L 388.8 34.56 
" style="fill:none;stroke:#000000;stroke-linecap:square;stroke-linejoin:miter;stroke-width:0.8;"/>
   </g>
   <g id="patch_5">
    <path d="M 54 252 
L 388.8 252 
" style="fill:none;stroke:#000000;stroke-linecap:square;stroke-linejoin:miter;stroke-width:0.8;"/>
   </g>
   <g id="patch_6">
    <path d="M 54 34.56 
L 388.8 34.56 
" style="fill:none;stroke:#000000;stroke-linecap:square;stroke-linejoin:miter;stroke-width:0.8;"/>
   </g>
   <g id="text_17">
    <!-- Mutual Information -->
    <defs>
     <path d="M 9.8125 72.90625 
L 24.515625 72.90625 
L 43.109375 23.296875 
L 61.8125 72.90625 
L 76.515625 72.90625 
L 76.515625 0 
L 66.890625 0 
L 66.890625 64.015625 
L 48.09375 14.015625 
L 38.1875 14.015625 
L 19.390625 64.015625 
L 19.390625 0 
L 9.8125 0 
z
" id="DejaVuSans-77"/>
     <path d="M 8.5 21.578125 
L 8.5 54.6875 
L 17.484375 54.6875 
L 17.484375 21.921875 
Q 17.484375 14.15625 20.5 10.265625 
Q 23.53125 6.390625 29.59375 6.390625 
Q 36.859375 6.390625 41.078125 11.03125 
Q 45.3125 15.671875 45.3125 23.6875 
L 45.3125 54.6875 
L 54.296875 54.6875 
L 54.296875 0 
L 45.3125 0 
L 45.3125 8.40625 
Q 42.046875 3.421875 37.71875 1 
Q 33.40625 -1.421875 27.6875 -1.421875 
Q 18.265625 -1.421875 13.375 4.4375 
Q 8.5 10.296875 8.5 21.578125 
z
M 31.109375 56 
z
" id="DejaVuSans-117"/>
     <path d="M 9.421875 75.984375 
L 18.40625 75.984375 
L 18.40625 0 
L 9.421875 0 
z
" id="DejaVuSans-108"/>
     <path id="DejaVuSans-32"/>
    </defs>
    <g transform="translate(164.179688 28.56)scale(0.12 -0.12)">
     <use xlink:href="#DejaVuSans-77"/>
     <use x="86.279297" xlink:href="#DejaVuSans-117"/>
     <use x="149.658203" xlink:href="#DejaVuSans-116"/>
     <use x="188.867188" xlink:href="#DejaVuSans-117"/>
     <use x="252.246094" xlink:href="#DejaVuSans-97"/>
     <use x="313.525391" xlink:href="#DejaVuSans-108"/>
     <use x="341.308594" xlink:href="#DejaVuSans-32"/>
     <use x="373.095703" xlink:href="#DejaVuSans-73"/>
     <use x="402.587891" xlink:href="#DejaVuSans-110"/>
     <use x="465.966797" xlink:href="#DejaVuSans-102"/>
     <use x="501.171875" xlink:href="#DejaVuSans-111"/>
     <use x="562.353516" xlink:href="#DejaVuSans-114"/>
     <use x="603.451172" xlink:href="#DejaVuSans-109"/>
     <use x="700.863281" xlink:href="#DejaVuSans-97"/>
     <use x="762.142578" xlink:href="#DejaVuSans-116"/>
     <use x="801.351562" xlink:href="#DejaVuSans-105"/>
     <use x="829.134766" xlink:href="#DejaVuSans-111"/>
     <use x="890.316406" xlink:href="#DejaVuSans-110"/>
    </g>
   </g>
   <g id="legend_1">
    <g id="patch_7">
     <path d="M 290.284375 101.82875 
L 381.8 101.82875 
Q 383.8 101.82875 383.8 99.82875 
L 383.8 41.56 
Q 383.8 39.56 381.8 39.56 
L 290.284375 39.56 
Q 288.284375 39.56 288.284375 41.56 
L 288.284375 99.82875 
Q 288.284375 101.82875 290.284375 101.82875 
z
" style="fill:#ffffff;opacity:0.8;stroke:#cccccc;stroke-linejoin:miter;"/>
    </g>
    <g id="line2d_19">
     <path d="M 292.284375 47.658438 
L 312.284375 47.658438 
" style="fill:none;stroke:#ff0000;stroke-linecap:square;stroke-width:1.5;"/>
    </g>
    <g id="line2d_20"/>
    <g id="text_18">
     <!-- U_x -->
     <defs>
      <path d="M 8.6875 72.90625 
L 18.609375 72.90625 
L 18.609375 28.609375 
Q 18.609375 16.890625 22.84375 11.734375 
Q 27.09375 6.59375 36.625 6.59375 
Q 46.09375 6.59375 50.34375 11.734375 
Q 54.59375 16.890625 54.59375 28.609375 
L 54.59375 72.90625 
L 64.5 72.90625 
L 64.5 27.390625 
Q 64.5 13.140625 57.4375 5.859375 
Q 50.390625 -1.421875 36.625 -1.421875 
Q 22.796875 -1.421875 15.734375 5.859375 
Q 8.6875 13.140625 8.6875 27.390625 
z
" id="DejaVuSans-85"/>
      <path d="M 50.984375 -16.609375 
L 50.984375 -23.578125 
L -0.984375 -23.578125 
L -0.984375 -16.609375 
z
" id="DejaVuSans-95"/>
      <path d="M 54.890625 54.6875 
L 35.109375 28.078125 
L 55.90625 0 
L 45.3125 0 
L 29.390625 21.484375 
L 13.484375 0 
L 2.875 0 
L 24.125 28.609375 
L 4.6875 54.6875 
L 15.28125 54.6875 
L 29.78125 35.203125 
L 44.28125 54.6875 
z
" id="DejaVuSans-120"/>
     </defs>
     <g transform="translate(320.284375 51.158438)scale(0.1 -0.1)">
      <use xlink:href="#DejaVuSans-85"/>
      <use x="73.193359" xlink:href="#DejaVuSans-95"/>
      <use x="123.193359" xlink:href="#DejaVuSans-120"/>
     </g>
    </g>
    <g id="line2d_21">
     <path d="M 292.284375 62.614688 
L 312.284375 62.614688 
" style="fill:none;stroke:#0000ff;stroke-linecap:square;stroke-width:1.5;"/>
    </g>
    <g id="line2d_22"/>
    <g id="text_19">
     <!-- U_v -->
     <defs>
      <path d="M 2.984375 54.6875 
L 12.5 54.6875 
L 29.59375 8.796875 
L 46.6875 54.6875 
L 56.203125 54.6875 
L 35.6875 0 
L 23.484375 0 
z
" id="DejaVuSans-118"/>
     </defs>
     <g transform="translate(320.284375 66.114688)scale(0.1 -0.1)">
      <use xlink:href="#DejaVuSans-85"/>
      <use x="73.193359" xlink:href="#DejaVuSans-95"/>
      <use x="123.193359" xlink:href="#DejaVuSans-118"/>
     </g>
    </g>
    <g id="line2d_23">
     <path d="M 292.284375 77.570938 
L 312.284375 77.570938 
" style="fill:none;stroke:#000000;stroke-linecap:square;stroke-width:1.5;"/>
    </g>
    <g id="line2d_24"/>
    <g id="text_20">
     <!-- synergy -->
     <defs>
      <path d="M 32.171875 -5.078125 
Q 28.375 -14.84375 24.75 -17.8125 
Q 21.140625 -20.796875 15.09375 -20.796875 
L 7.90625 -20.796875 
L 7.90625 -13.28125 
L 13.1875 -13.28125 
Q 16.890625 -13.28125 18.9375 -11.515625 
Q 21 -9.765625 23.484375 -3.21875 
L 25.09375 0.875 
L 2.984375 54.6875 
L 12.5 54.6875 
L 29.59375 11.921875 
L 46.6875 54.6875 
L 56.203125 54.6875 
z
" id="DejaVuSans-121"/>
      <path d="M 45.40625 27.984375 
Q 45.40625 37.75 41.375 43.109375 
Q 37.359375 48.484375 30.078125 48.484375 
Q 22.859375 48.484375 18.828125 43.109375 
Q 14.796875 37.75 14.796875 27.984375 
Q 14.796875 18.265625 18.828125 12.890625 
Q 22.859375 7.515625 30.078125 7.515625 
Q 37.359375 7.515625 41.375 12.890625 
Q 45.40625 18.265625 45.40625 27.984375 
z
M 54.390625 6.78125 
Q 54.390625 -7.171875 48.1875 -13.984375 
Q 42 -20.796875 29.203125 -20.796875 
Q 24.46875 -20.796875 20.265625 -20.09375 
Q 16.0625 -19.390625 12.109375 -17.921875 
L 12.109375 -9.1875 
Q 16.0625 -11.328125 19.921875 -12.34375 
Q 23.78125 -13.375 27.78125 -13.375 
Q 36.625 -13.375 41.015625 -8.765625 
Q 45.40625 -4.15625 45.40625 5.171875 
L 45.40625 9.625 
Q 42.625 4.78125 38.28125 2.390625 
Q 33.9375 0 27.875 0 
Q 17.828125 0 11.671875 7.65625 
Q 5.515625 15.328125 5.515625 27.984375 
Q 5.515625 40.671875 11.671875 48.328125 
Q 17.828125 56 27.875 56 
Q 33.9375 56 38.28125 53.609375 
Q 42.625 51.21875 45.40625 46.390625 
L 45.40625 54.6875 
L 54.390625 54.6875 
z
" id="DejaVuSans-103"/>
     </defs>
     <g transform="translate(320.284375 81.070938)scale(0.1 -0.1)">
      <use xlink:href="#DejaVuSans-115"/>
      <use x="52.099609" xlink:href="#DejaVuSans-121"/>
      <use x="111.279297" xlink:href="#DejaVuSans-110"/>
      <use x="174.658203" xlink:href="#DejaVuSans-101"/>
      <use x="236.181641" xlink:href="#DejaVuSans-114"/>
      <use x="277.279297" xlink:href="#DejaVuSans-103"/>
      <use x="340.755859" xlink:href="#DejaVuSans-121"/>
     </g>
    </g>
    <g id="line2d_25">
     <path d="M 292.284375 92.249063 
L 312.284375 92.249063 
" style="fill:none;stroke:#008000;stroke-linecap:square;stroke-width:1.5;"/>
    </g>
    <g id="line2d_26"/>
    <g id="text_21">
     <!-- redundancy -->
     <defs>
      <path d="M 45.40625 46.390625 
L 45.40625 75.984375 
L 54.390625 75.984375 
L 54.390625 0 
L 45.40625 0 
L 45.40625 8.203125 
Q 42.578125 3.328125 38.25 0.953125 
Q 33.9375 -1.421875 27.875 -1.421875 
Q 17.96875 -1.421875 11.734375 6.484375 
Q 5.515625 14.40625 5.515625 27.296875 
Q 5.515625 40.1875 11.734375 48.09375 
Q 17.96875 56 27.875 56 
Q 33.9375 56 38.25 53.625 
Q 42.578125 51.265625 45.40625 46.390625 
z
M 14.796875 27.296875 
Q 14.796875 17.390625 18.875 11.75 
Q 22.953125 6.109375 30.078125 6.109375 
Q 37.203125 6.109375 41.296875 11.75 
Q 45.40625 17.390625 45.40625 27.296875 
Q 45.40625 37.203125 41.296875 42.84375 
Q 37.203125 48.484375 30.078125 48.484375 
Q 22.953125 48.484375 18.875 42.84375 
Q 14.796875 37.203125 14.796875 27.296875 
z
" id="DejaVuSans-100"/>
      <path d="M 48.78125 52.59375 
L 48.78125 44.1875 
Q 44.96875 46.296875 41.140625 47.34375 
Q 37.3125 48.390625 33.40625 48.390625 
Q 24.65625 48.390625 19.8125 42.84375 
Q 14.984375 37.3125 14.984375 27.296875 
Q 14.984375 17.28125 19.8125 11.734375 
Q 24.65625 6.203125 33.40625 6.203125 
Q 37.3125 6.203125 41.140625 7.25 
Q 44.96875 8.296875 48.78125 10.40625 
L 48.78125 2.09375 
Q 45.015625 0.34375 40.984375 -0.53125 
Q 36.96875 -1.421875 32.421875 -1.421875 
Q 20.0625 -1.421875 12.78125 6.34375 
Q 5.515625 14.109375 5.515625 27.296875 
Q 5.515625 40.671875 12.859375 48.328125 
Q 20.21875 56 33.015625 56 
Q 37.15625 56 41.109375 55.140625 
Q 45.0625 54.296875 48.78125 52.59375 
z
" id="DejaVuSans-99"/>
     </defs>
     <g transform="translate(320.284375 95.749063)scale(0.1 -0.1)">
      <use xlink:href="#DejaVuSans-114"/>
      <use x="41.082031" xlink:href="#DejaVuSans-101"/>
      <use x="102.605469" xlink:href="#DejaVuSans-100"/>
      <use x="166.082031" xlink:href="#DejaVuSans-117"/>
      <use x="229.460938" xlink:href="#DejaVuSans-110"/>
      <use x="292.839844" xlink:href="#DejaVuSans-100"/>
      <use x="356.316406" xlink:href="#DejaVuSans-97"/>
      <use x="417.595703" xlink:href="#DejaVuSans-110"/>
      <use x="480.974609" xlink:href="#DejaVuSans-99"/>
      <use x="535.955078" xlink:href="#DejaVuSans-121"/>
     </g>
    </g>
   </g>
  </g>
 </g>
 <defs>
  <clipPath id="p3e17831be2">
   <rect height="217.44" width="334.8" x="54" y="34.56"/>
  </clipPath>
 </defs>
</svg>
